<svg xmlns="http://www.w3.org/2000/svg" width="1280" height="640" viewBox="0 0 1280 640" role="img" aria-labelledby="title desc">
  <title id="title">telegram-web-relay-client</title>
  <desc id="desc">Telegram Web A fork that talks to your own relay</desc>
  <rect width="1280" height="640" fill="#0e1621"/>
  <circle cx="1015" cy="122" r="210" fill="#1f8ad3" opacity=".12"/>
  <circle cx="1116" cy="506" r="265" fill="#45b97c" opacity=".10"/>
  <g transform="translate(82 108)">
    <rect x="0" y="0" width="516" height="424" rx="28" fill="#172331" stroke="#2f4358" stroke-width="2"/>
    <rect x="0" y="0" width="516" height="62" rx="28" fill="#1d2c3b"/>
    <rect x="0" y="34" width="516" height="28" fill="#1d2c3b"/>
    <circle cx="39" cy="31" r="8" fill="#ff6b6b"/>
    <circle cx="66" cy="31" r="8" fill="#ffd166"/>
    <circle cx="93" cy="31" r="8" fill="#45b97c"/>
    <rect x="124" y="19" width="302" height="24" rx="12" fill="#101b26"/>
    <rect x="40" y="96" width="160" height="32" rx="16" fill="#2f4358"/>
    <rect x="40" y="152" width="330" height="24" rx="12" fill="#263849"/>
    <rect x="40" y="198" width="272" height="24" rx="12" fill="#263849"/>
    <rect x="40" y="278" width="436" height="82" rx="18" fill="#101b26" stroke="#2f4358" stroke-width="2"/>
    <rect x="66" y="304" width="244" height="18" rx="9" fill="#45b97c"/>
    <rect x="66" y="332" width="334" height="14" rx="7" fill="#2f4358"/>
  </g>
  <g fill="none" stroke-linecap="round" stroke-linejoin="round">
    <path d="M654 320h132" stroke="#6aa7df" stroke-width="10"/>
    <path d="M760 284l36 36-36 36" stroke="#6aa7df" stroke-width="10"/>
  </g>
  <g transform="translate(832 166)">
    <rect x="0" y="0" width="322" height="308" rx="30" fill="#152231" stroke="#45b97c" stroke-width="3"/>
    <rect x="52" y="54" width="218" height="56" rx="18" fill="#203245"/>
    <rect x="80" y="136" width="162" height="42" rx="21" fill="#45b97c"/>
    <rect x="66" y="208" width="190" height="22" rx="11" fill="#2f4358"/>
    <rect x="96" y="244" width="130" height="18" rx="9" fill="#2f4358"/>
  </g>
  <text x="82" y="562" fill="#e8f0f7" font-family="system-ui, -apple-system, BlinkMacSystemFont, 'Segoe UI', sans-serif" font-size="58" font-weight="700">telegram-web-relay-client</text>
  <text x="84" y="604" fill="#9eb2c5" font-family="system-ui, -apple-system, BlinkMacSystemFont, 'Segoe UI', sans-serif" font-size="28">Telegram Web A fork that talks to your own relay</text>
  <text x="919" y="152" fill="#e8f0f7" font-family="system-ui, -apple-system, BlinkMacSystemFont, 'Segoe UI', sans-serif" font-size="32" font-weight="700" text-anchor="middle">Relay</text>
  <text x="340" y="96" fill="#9eb2c5" font-family="system-ui, -apple-system, BlinkMacSystemFont, 'Segoe UI', sans-serif" font-size="24" font-weight="600" text-anchor="middle">Browser UI</text>
</svg>
